<svg width="48" height="48" viewBox="0 0 48 48" fill="none" xmlns="http://www.w3.org/2000/svg">
<path d="M18.2136 46.8402C19.3433 46.8402 20.2591 45.8808 20.2591 44.6973C20.2591 43.5138 19.3433 42.5544 18.2136 42.5544C17.0839 42.5544 16.1682 43.5138 16.1682 44.6973C16.1682 45.8808 17.0839 46.8402 18.2136 46.8402Z" stroke="black" stroke-width="2" stroke-linecap="round" stroke-linejoin="round"/>
<path d="M40.7136 46.8402C41.8433 46.8402 42.7591 45.8808 42.7591 44.6973C42.7591 43.5138 41.8433 42.5544 40.7136 42.5544C39.5839 42.5544 38.6682 43.5138 38.6682 44.6973C38.6682 45.8808 39.5839 46.8402 40.7136 46.8402Z" stroke="black" stroke-width="2" stroke-linecap="round" stroke-linejoin="round"/>
<path d="M1.84998 1.84009H10.0318L15.5136 30.533C15.7007 31.5195 16.213 32.4057 16.9609 33.0365C17.7088 33.6672 18.6446 34.0022 19.6045 33.983H39.4863C40.4463 34.0022 41.3821 33.6672 42.13 33.0365C42.8779 32.4057 43.3902 31.5195 43.5772 30.533L46.85 12.5544H12.0772" stroke="black" stroke-width="2" stroke-linecap="round" stroke-linejoin="round"/>
</svg>
