<svg width="45" height="46" viewBox="0 0 45 46" fill="none" xmlns="http://www.w3.org/2000/svg">
<g clip-path="url(#clip0_1_38)">
<path d="M42.5 45.5V40.5C42.5 37.8478 41.4464 35.3043 39.5711 33.4289C37.6957 31.5536 35.1522 30.5 32.5 30.5H12.5C9.84784 30.5 7.3043 31.5536 5.42893 33.4289C3.55357 35.3043 2.5 37.8478 2.5 40.5V45.5" stroke="black" stroke-width="2" stroke-linecap="round" stroke-linejoin="round"/>
<path d="M22.5 20.1153C28.7132 20.1153 33.75 16.2409 33.75 11.4615C33.75 6.68208 28.7132 2.80762 22.5 2.80762C16.2868 2.80762 11.25 6.68208 11.25 11.4615C11.25 16.2409 16.2868 20.1153 22.5 20.1153Z" stroke="black" stroke-width="2" stroke-linecap="round" stroke-linejoin="round"/>
</g>
<defs>
<clipPath id="clip0_1_38">
<rect width="45" height="45" fill="white" transform="translate(0 0.5)"/>
</clipPath>
</defs>
</svg>
