<svg width="24" height="25" viewBox="0 0 24 25" fill="none" xmlns="http://www.w3.org/2000/svg">
<path d="M5 14.5585C5 13.5494 5 13.0448 5.22166 12.6141C5.44333 12.1833 5.8539 11.8901 6.67505 11.3035L10.8375 8.33034C11.3989 7.92938 11.6795 7.7289 12 7.7289C12.3205 7.7289 12.6011 7.92938 13.1625 8.33034L17.325 11.3035C18.1461 11.8901 18.5567 12.1833 18.7783 12.6141C19 13.0448 19 13.5494 19 14.5585V19.5C19 20.4428 19 20.9142 18.7071 21.2071C18.4142 21.5 17.9428 21.5 17 21.5H7C6.05719 21.5 5.58579 21.5 5.29289 21.2071C5 20.9142 5 20.4428 5 19.5V14.5585Z" fill="#130F40" fill-opacity="0.24"/>
<path d="M3 12.8866C3 13.1535 3 13.2869 3.0841 13.3281C3.16819 13.3692 3.27352 13.2873 3.48418 13.1234L10.7721 7.45502C11.362 6.99625 11.6569 6.76686 12 6.76686C12.3431 6.76686 12.638 6.99625 13.2279 7.45502L20.5158 13.1234C20.7265 13.2873 20.8318 13.3692 20.9159 13.3281C21 13.2869 21 13.1535 21 12.8866V12.4782C21 11.9978 21 11.7576 20.8983 11.5497C20.7966 11.3418 20.607 11.1944 20.2279 10.8995L13.2279 5.45502C12.638 4.99625 12.3431 4.76686 12 4.76686C11.6569 4.76686 11.362 4.99625 10.7721 5.45502L3.77212 10.8995C3.39295 11.1944 3.20337 11.3418 3.10168 11.5497C3 11.7576 3 11.9978 3 12.4782V12.8866Z" fill="#130F40"/>
<path d="M12.5 15.5H11.5C10.3954 15.5 9.5 16.3954 9.5 17.5V21.35C9.5 21.4328 9.56716 21.5 9.65 21.5H14.35C14.4328 21.5 14.5 21.4328 14.5 21.35V17.5C14.5 16.3954 13.6046 15.5 12.5 15.5Z" fill="#130F40"/>
<rect x="16" y="5.5" width="2" height="4" rx="0.5" fill="#130F40"/>
</svg>
